<?xml version="1.0" encoding="UTF-8" standalone="no"?>
<svg
   xmlns:dc="http://purl.org/dc/elements/1.1/"
   xmlns:cc="http://creativecommons.org/ns#"
   xmlns:rdf="http://www.w3.org/1999/02/22-rdf-syntax-ns#"
   xmlns:svg="http://www.w3.org/2000/svg"
   xmlns="http://www.w3.org/2000/svg"
   id="svg8"
   version="1.1"
   viewBox="0 0 210 297"
   height="297mm"
   width="210mm">
  <defs
     id="defs2" />
  <metadata
     id="metadata5">
    <rdf:RDF>
      <cc:Work
         rdf:about="">
        <dc:format>image/svg+xml</dc:format>
        <dc:type
           rdf:resource="http://purl.org/dc/dcmitype/StillImage" />
        <dc:title></dc:title>
      </cc:Work>
    </rdf:RDF>
  </metadata>
  <g
     id="layer1">
    <g
       transform="matrix(7.4018524,0,0,7.4018524,33.366049,61.761008)"
       id="g122">
      <path
         style="fill:none"
         d="M 0,0 H 24 V 24 H 0 Z"
         id="path110" />
    </g>
    <path
       style="stroke-width:7.73652792"
       clip-path="none"
       d="m 77.777166,210.61 c 0,8.89508 6.661516,16.17263 14.803805,16.17263 h 59.214619 c 8.14199,0 14.8038,-7.27755 14.8038,-16.17263 V 113.57388 H 77.777166 Z M 92.580971,124.12904 H 151.79559 V 210.61 H 92.580971 Z"
       id="path108" />
    <path
       style="stroke-width:7.40185213"
       id="use19"
       d="M 65.881711,61.843536 55.415216,62.011491 29.67133,88.599687 29.839287,99.066157 11.818299,117.67798 22.453753,127.9755 94.536819,53.528756 83.901365,43.230972 Z"
       clip-path="none" />
    <rect
       style="stroke-width:7.40185213"
       y="133.4003"
       x="100.70972"
       height="69.392303"
       width="8.591445"
       id="rect32" />
    <rect
       style="stroke-width:7.69562101"
       y="130.75665"
       x="117.23162"
       height="75.009789"
       width="8.591445"
       id="rect32-3" />
    <rect
       style="stroke-width:7.40185213"
       y="133.40071"
       x="134.41493"
       height="69.392319"
       width="8.591445"
       id="rect32-3-6" />
  </g>
</svg>
